PathFileType	4	(X/Y/Z)	
DataRate	CameraRate	NumFrames	NumMarkers	Units	OrigDataRate	OrigDataStartFrame	OrigNumFrames
100	100	4	41	m	100	13	110
Frame#	Time	LELB			LSHO			RSHO			LUPA			LBHD			RUPA			RBHD			C7			RWRB			LWRB			RELB			RBAK			LANK			LKNE			LPSI			T10			LBTO			RPSI			RKNE			LTIB			RTIB			LTHI			RBTO			RTOE			RANK			RHEE			RTHI			LHEE			LFRM			LWRA			RFRM			LFIN			RFIN			RFHD			RWRA			RASI			LTOE			STRN			CLAV			LASI			LFHD			
		X1	Y1	Z1	X2	Y2	Z2	X3	Y3	Z3	X4	Y4	Z4	X5	Y5	Z5	X6	Y6	Z6	X7	Y7	Z7	X8	Y8	Z8	X9	Y9	Z9	X10	Y10	Z10	X11	Y11	Z11	X12	Y12	Z12	X13	Y13	Z13	X14	Y14	Z14	X15	Y15	Z15	X16	Y16	Z16	X17	Y17	Z17	X18	Y18	Z18	X19	Y19	Z19	X20	Y20	Z20	X21	Y21	Z21	X22	Y22	Z22	X23	Y23	Z23	X24	Y24	Z24	X25	Y25	Z25	X26	Y26	Z26	X27	Y27	Z27	X28	Y28	Z28	X29	Y29	Z29	X30	Y30	Z30	X31	Y31	Z31	X32	Y32	Z32	X33	Y33	Z33	X34	Y34	Z34	X35	Y35	Z35	X36	Y36	Z36	X37	Y37	Z37	X38	Y38	Z38	X39	Y39	Z39	X40	Y40	Z40	X41	Y41	Z41	X42	Y42	Z42	X43	Y43	Z43	

14	0.13	0.546035705566406	1.16037341308594	-1.13879082733994	0.474152282714844	1.50354760742187	-1.15014086396104	0.0933980712890625	1.51300659179688	-1.14777465302354	0.515142822265625	1.35698229980469	-1.15047490937119	0.367138763427734	1.64540673828125	-1.15877221161729	0.0200456218719482	1.24951171875	-1.1375668283165	0.215949554443359	1.6573466796875	-1.16182500702744	0.279995910644531	1.54762573242187	-1.21148931366807	0.0208795051574707	0.888228576660156	-1.06392168671494	0.552567749023438	0.880955932617188	-1.14434936005479	0.00294599556922913	1.15646936035156	-1.12121245819932	0.133288726806641	1.45154284667969	-1.24445391327744	0.365215759277344	0.066698471069336	-0.982864191597755	0.4195263671875	0.525061462402344	-1.0026234689415	0.306890258789063	1.08574206542969	-1.24810833222275	0.286740539550781	1.26524072265625	-1.27492290741807	0.312113159179688	0.036131763458252	-0.773086725777442	0.23884049987793	1.07945495605469	-1.24200005585557	0.12823600769043	0.489162811279297	-1.16505871064072	0.418141815185547	0.365015838623047	-0.983736567086036	0.125476928710937	0.392813415527344	-1.28807793671494	0.440652526855469	0.683259582519531	-1.02799016816025	0.208900863647461	0.0359061279296876	-1.43155889374619	0.196201385498047	0.0734261627197266	-1.470313898629	0.191092926025391	0.226785873413086	-1.51462200409775	0.245955215454102	0.259612579345703	-1.56132476288682	0.117483573913574	0.636193725585938	-1.1197836251915	0.332343658447266	0.0319346885681153	-1.04982146698838	0.544441833496094	0.914987548828125	-1.09952984101182	0.497355346679688	0.879993713378906	-1.089345148629	0.0188170204162598	0.942896728515625	-1.04169146210557	0.538732177734375	0.798046081542969	-1.06211895233994	0.0366492576599121	0.815399719238281	-0.967562372750099	0.227633850097656	1.73200561523438	-1.02869646698838	0.07576025390625	0.906614807128906	-1.01054790741807	0.146201477050781	1.03412145996094	-1.06352208954697	0.341907531738281	0.0395987014770508	-0.82900213105088	0.288105102539063	1.28488928222656	-1.0367635446251	0.283884948730469	1.41694396972656	-1.06096990448838	0.408407073974609	1.05381848144531	-1.07227984101182	0.354726379394531	1.72082470703125	-1.02206444794541
15	0.14	0.547386291503906	1.16224133300781	-1.1363976196849	0.475010223388672	1.50535473632812	-1.14797312017318	0.0941808395385742	1.51513854980469	-1.14733231206771	0.516111328125	1.35888122558594	-1.14799906011459	0.368000396728516	1.64745349121094	-1.15767386480209	0.0204406204223633	1.25152795410156	-1.13792600103256	0.216796615600586	1.65934167480469	-1.16079904790756	0.281213836669922	1.54997509765625	-1.21001779790756	0.020563497543335	0.890041687011719	-1.06535452886459	0.552929443359375	0.882813232421875	-1.14028494878646	0.00341071391105652	1.15837915039063	-1.1218282837474	0.134567687988281	1.45379479980469	-1.2439771484935	0.365336608886719	0.0666700592041016	-0.994689001520839	0.419472991943359	0.525791015625	-1.00812735601303	0.308197631835938	1.0884345703125	-1.24688400884506	0.288028442382812	1.26759057617188	-1.27363425298568	0.31233642578125	0.0356347618103028	-0.785228064020839	0.240303863525391	1.08171643066406	-1.24111472173568	0.128718597412109	0.48986865234375	-1.14938638921615	0.418016479492188	0.365308074951172	-0.992197668513027	0.126010963439941	0.394627380371094	-1.27195725103256	0.440846099853516	0.684115844726563	-1.03188950200912	0.205492965698242	0.0401525840759278	-1.41974057622787	0.192976913452148	0.0806942138671876	-1.45780319829818	0.191944259643555	0.23415217590332	-1.50257785650131	0.247738723754883	0.265708648681641	-1.54915561529037	0.118607192993164	0.637391784667969	-1.10962058111068	0.33256005859375	0.0320084838867188	-1.06190866704818	0.544734130859375	0.917102722167969	-1.09567313238021	0.497610473632813	0.882332580566406	-1.08548679204818	0.0187331790924072	0.944497497558594	-1.042993750056	0.538590209960938	0.800518981933594	-1.05757016607162	0.0367887268066406	0.816570678710937	-0.969538061579433	0.227680099487305	1.73487573242188	-1.02809232183334	0.0756721878051758	0.908035766601562	-1.01212717290756	0.147032348632813	1.03607434082031	-1.0632482056224	0.341931213378906	0.0392985038757325	-0.840935766657558	0.288199249267578	1.28706018066406	-1.0353956665599	0.284249328613281	1.41916943359375	-1.05961728521225	0.409093902587891	1.05556298828125	-1.07060623784896	0.3551513671875	1.72323376464844	-1.02130325933334
16	0.15	0.548579528808594	1.16431201171875	-1.13375984415877	0.475729736328125	1.50726806640625	-1.14573060831892	0.0948748550415039	1.51724841308594	-1.14705201945174	0.516787780761719	1.36101416015625	-1.14530488810408	0.368595764160156	1.64950866699219	-1.15647383341658	0.0208297634124756	1.25361083984375	-1.13833980021346	0.217486938476563	1.66138781738281	-1.15971071085799	0.28233984375	1.5523642578125	-1.20860902628767	0.0202375354766846	0.891911682128906	-1.06683113322127	0.553222473144531	0.884744140625	-1.13606312785017	0.00384638857841492	1.16040612792969	-1.12251533732283	0.135901458740234	1.45601049804688	-1.24365504679549	0.365391662597656	0.0667828979492188	-1.00663282999861	0.419436584472656	0.526495971679688	-1.0137079032408	0.309385009765625	1.09105419921875	-1.2458641532408	0.289413482666016	1.27005725097656	-1.27248439249861	0.311302215576172	0.0353650588989258	-0.797457659100174	0.241659118652344	1.084150390625	-1.24041481242049	0.1296728515625	0.492018737792969	-1.13410872111189	0.417752593994141	0.365621398925781	-1.00054683146346	0.12727124786377	0.396954528808594	-1.25599074015486	0.441153564453125	0.685197875976563	-1.0359002860533	0.202104705810547	0.0426203842163087	-1.40610121378767	0.190707397460938	0.0854351348876954	-1.44309327921736	0.192787857055664	0.239453643798828	-1.48862257609236	0.249399002075195	0.269440063476563	-1.53594117960799	0.119664855957031	0.639791809082031	-1.09967921671736	0.332707641601563	0.03201176071167	-1.07403999552595	0.544935363769531	0.919383483886719	-1.09173152384627	0.497753784179688	0.884862609863281	-1.08158748087752	0.018555118560791	0.946267883300781	-1.04434858927595	0.53841259765625	0.803348937988281	-1.05266475138533	0.0367226257324219	0.818009460449219	-0.971399492596268	0.227925918579102	1.73759533691406	-1.0273256400572	0.0754487991333008	0.909679077148438	-1.01369398722517	0.147889404296875	1.0382666015625	-1.06312727579939	0.341473815917969	0.0390525665283204	-0.852950273846268	0.288275085449219	1.28914489746094	-1.03422395548689	0.284484130859375	1.42138293457031	-1.05831398234236	0.409871948242188	1.05774145507813	-1.06924873576033	0.355582855224609	1.72567102050781	-1.02060225138533
17	0.16	0.549531311035156	1.16660656738281	-1.13086865066388	0.476233642578125	1.50929870605469	-1.14343816970685	0.0954894714355469	1.51935339355469	-1.14690673660138	0.517413513183594	1.36327795410156	-1.14267468093732	0.368779083251953	1.65135754394531	-1.15485192703107	0.0212203979492188	1.25577331542969	-1.13879003738263	0.217929107666016	1.6635107421875	-1.15862158035138	0.283334716796875	1.55484008789062	-1.20732794021466	0.0199053936004639	0.893876159667969	-1.06836419509748	0.553457641601563	0.886848327636719	-1.13172125076154	0.00419987773895264	1.16258898925781	-1.12329565261701	0.137255310058594	1.45823901367188	-1.24343133376935	0.365310119628906	0.0669062500000001	-1.01863799880841	0.419302154541016	0.5269140625	-1.01987701248029	0.310500274658203	1.09356701660156	-1.24489520095685	0.2908603515625	1.27260461425781	-1.27147198318341	0.311151397705078	0.0352009391784668	-0.80973003982404	0.242985137939453	1.08658740234375	-1.23984527419904	0.130786041259766	0.495308532714844	-1.11923547195295	0.417098236083984	0.365966644287109	-1.00883984207013	0.128838851928711	0.399471771240234	-1.2403820173631	0.44135546875	0.686326782226563	-1.03978832839826	0.19877018737793	0.0456693992614747	-1.38901434158185	0.189219573974609	0.0874625091552735	-1.4265031111131	0.193421173095703	0.242600357055664	-1.47295928787091	0.250605606079102	0.271467376708984	-1.52188421462873	0.120631469726562	0.643028259277344	-1.08964050124982	0.332774993896484	0.0320265045166016	-1.08615478347638	0.545048645019531	0.921870483398437	-1.08769250320295	0.497739654541016	0.887607177734375	-1.07761907790998	0.0182937774658203	0.948234375	-1.04576324294904	0.538233825683594	0.806522766113281	-1.04748034499982	0.0364255218505859	0.819675109863281	-0.973175779570133	0.228412796020508	1.73986975097656	-1.02632452224591	0.0751052627563477	0.911494934082031	-1.0152193586717	0.148807556152344	1.04074755859375	-1.06303301833966	0.341152313232422	0.0388442077636719	-0.86498589919904	0.288314880371094	1.29119152832031	-1.03322399734357	0.284571105957031	1.42358081054688	-1.05705755447248	0.410623443603516	1.06022009277344	-1.06797241042951	0.355931854248047	1.72807763671875	-1.01983874343732
